<mxfile host="Electron" agent="Mozilla/5.0 (Windows NT 10.0; Win64; x64) AppleWebKit/537.36 (KHTML, like Gecko) draw.io/24.7.17 Chrome/128.0.6613.36 Electron/32.0.1 Safari/537.36" version="24.7.17">
  <diagram name="Page-1" id="7PBWL3UdkGz0oUKvknsD">
    <mxGraphModel dx="1102" dy="570" grid="1" gridSize="10" guides="1" tooltips="1" connect="1" arrows="1" fold="1" page="1" pageScale="1" pageWidth="850" pageHeight="1100" math="0" shadow="0">
      <root>
        <mxCell id="0" />
        <mxCell id="1" parent="0" />
        <mxCell id="cRBekJ2gdsWVzI-LCOdk-1" value="Notification" style="rounded=1;arcSize=10;whiteSpace=wrap;html=1;align=center;" parent="1" vertex="1">
          <mxGeometry x="390" y="360" width="100" height="40" as="geometry" />
        </mxCell>
        <mxCell id="cRBekJ2gdsWVzI-LCOdk-2" value="ImageUrl" style="ellipse;whiteSpace=wrap;html=1;align=center;" parent="1" vertex="1">
          <mxGeometry x="280" y="280" width="100" height="40" as="geometry" />
        </mxCell>
        <mxCell id="cRBekJ2gdsWVzI-LCOdk-3" value="" style="endArrow=none;html=1;rounded=0;" parent="1" source="cRBekJ2gdsWVzI-LCOdk-2" target="cRBekJ2gdsWVzI-LCOdk-1" edge="1">
          <mxGeometry relative="1" as="geometry">
            <mxPoint x="250" y="440" as="sourcePoint" />
            <mxPoint x="410" y="440" as="targetPoint" />
          </mxGeometry>
        </mxCell>
        <mxCell id="cRBekJ2gdsWVzI-LCOdk-4" value="Link" style="ellipse;whiteSpace=wrap;html=1;align=center;" parent="1" vertex="1">
          <mxGeometry x="390" y="280" width="100" height="40" as="geometry" />
        </mxCell>
        <mxCell id="cRBekJ2gdsWVzI-LCOdk-5" value="" style="endArrow=none;html=1;rounded=0;" parent="1" source="cRBekJ2gdsWVzI-LCOdk-4" target="cRBekJ2gdsWVzI-LCOdk-1" edge="1">
          <mxGeometry relative="1" as="geometry">
            <mxPoint x="620" y="330" as="sourcePoint" />
            <mxPoint x="780" y="330" as="targetPoint" />
          </mxGeometry>
        </mxCell>
        <mxCell id="cRBekJ2gdsWVzI-LCOdk-6" value="Title" style="ellipse;whiteSpace=wrap;html=1;align=center;" parent="1" vertex="1">
          <mxGeometry x="500" y="280" width="100" height="40" as="geometry" />
        </mxCell>
        <mxCell id="cRBekJ2gdsWVzI-LCOdk-7" value="" style="endArrow=none;html=1;rounded=0;" parent="1" source="cRBekJ2gdsWVzI-LCOdk-1" target="cRBekJ2gdsWVzI-LCOdk-6" edge="1">
          <mxGeometry relative="1" as="geometry">
            <mxPoint x="500" y="400" as="sourcePoint" />
            <mxPoint x="660" y="400" as="targetPoint" />
          </mxGeometry>
        </mxCell>
        <mxCell id="nNEBYjCs9M6gU5FxiVcg-1" value="Messanger" style="ellipse;whiteSpace=wrap;html=1;align=center;" vertex="1" parent="1">
          <mxGeometry x="610" y="280" width="100" height="40" as="geometry" />
        </mxCell>
        <mxCell id="nNEBYjCs9M6gU5FxiVcg-2" value="" style="endArrow=none;html=1;rounded=0;" edge="1" parent="1" source="cRBekJ2gdsWVzI-LCOdk-1" target="nNEBYjCs9M6gU5FxiVcg-1">
          <mxGeometry width="50" height="50" relative="1" as="geometry">
            <mxPoint x="610" y="500" as="sourcePoint" />
            <mxPoint x="660" y="450" as="targetPoint" />
          </mxGeometry>
        </mxCell>
        <mxCell id="nNEBYjCs9M6gU5FxiVcg-3" value="ReceiveTo" style="ellipse;shape=doubleEllipse;margin=3;whiteSpace=wrap;html=1;align=center;" vertex="1" parent="1">
          <mxGeometry x="170" y="280" width="100" height="40" as="geometry" />
        </mxCell>
        <mxCell id="nNEBYjCs9M6gU5FxiVcg-4" value="" style="endArrow=none;html=1;rounded=0;" edge="1" parent="1" source="cRBekJ2gdsWVzI-LCOdk-1" target="nNEBYjCs9M6gU5FxiVcg-3">
          <mxGeometry width="50" height="50" relative="1" as="geometry">
            <mxPoint x="210" y="420" as="sourcePoint" />
            <mxPoint x="260" y="370" as="targetPoint" />
          </mxGeometry>
        </mxCell>
        <mxCell id="nNEBYjCs9M6gU5FxiVcg-5" value="User" style="ellipse;whiteSpace=wrap;html=1;align=center;" vertex="1" parent="1">
          <mxGeometry x="70" y="220" width="100" height="40" as="geometry" />
        </mxCell>
        <mxCell id="nNEBYjCs9M6gU5FxiVcg-6" value="" style="endArrow=none;html=1;rounded=0;" edge="1" parent="1" source="nNEBYjCs9M6gU5FxiVcg-5" target="nNEBYjCs9M6gU5FxiVcg-3">
          <mxGeometry relative="1" as="geometry">
            <mxPoint x="190" y="420" as="sourcePoint" />
            <mxPoint x="350" y="420" as="targetPoint" />
          </mxGeometry>
        </mxCell>
      </root>
    </mxGraphModel>
  </diagram>
</mxfile>
